PathFileType	4	(X/Y/Z)	Patient4_TMGait_0pt5_01_left_39.trc.trc
DataRate	CameraRate	NumFrames	NumMarkers	Units	OrigDataRate	OrigDataStartFrame	OrigNumFrames
75.675675675676	75.675675675676	4	33	mm	75.675675675676	106	       141
Frame#	Time	L.ASIS			Sacral			L.Shoulder			Chest			R.Shoulder			Neck			R.ASIS			R.Thigh.Superior			R.Thigh.Lateral			R.Thigh.Inferior			R.Patella			L.Thigh.Superior			L.Thigh.Lateral			L.Thigh.Inferior			L.Patella			L.Shank.Superior			L.Shank.Lateral			L.Shank.Inferior			R.Shank.Superior			R.Shank.Lateral			R.Shank.Inferior			R.Heel			R.Midfoot.Superior			R.Midfoot.Lateral			R.Toe			L.Heel			L.Midfoot.Lateral			L.Midfoot.Superior			L.Toe			L.Elbow			L.Wrist			R.Elbow			R.Wrist			
		X1	Y1	Z1	X2	Y2	Z2	X3	Y3	Z3	X4	Y4	Z4	X5	Y5	Z5	X6	Y6	Z6	X7	Y7	Z7	X8	Y8	Z8	X9	Y9	Z9	X10	Y10	Z10	X11	Y11	Z11	X12	Y12	Z12	X13	Y13	Z13	X14	Y14	Z14	X15	Y15	Z15	X16	Y16	Z16	X17	Y17	Z17	X18	Y18	Z18	X19	Y19	Z19	X20	Y20	Z20	X21	Y21	Z21	X22	Y22	Z22	X23	Y23	Z23	X24	Y24	Z24	X25	Y25	Z25	X26	Y26	Z26	X27	Y27	Z27	X28	Y28	Z28	X29	Y29	Z29	X30	Y30	Z30	X31	Y31	Z31	X32	Y32	Z32	X33	Y33	Z33	

106	53.347500000000	768.946427248751	967.605989049600	370.096784290139	564.803937299142	1014.859341625418	538.043941118786	730.210911615573	1443.320144531566	356.926850630126	845.163685164740	1367.901443591283	507.282546929208	777.570143242083	1438.047198482438	690.284854809100	742.257904539180	1501.531931530563	510.126964873869	795.619431293205	945.469051419699	643.147333015739	817.179040023327	738.916873351847	613.640881190968	724.725652704600	636.423891980244	670.319526743868	796.495013633350	578.701170204003	590.919224840907	788.977864453885	493.495659015057	594.300704940166	853.136230584270	790.421428836009	393.789467668413	809.984942278950	664.779198011364	312.568852646784	916.504136379926	604.587182502733	368.200838447496	935.767376947774	519.684411561877	359.255301279556	884.600557302634	445.825106118123	351.767889699850	758.020205152074	371.091463910050	303.805267896283	780.584636327162	242.045671383992	356.421250470335	760.621403774435	406.423008227824	597.682849516809	686.015500032749	302.120400742436	652.030021990902	730.750666456860	208.794503956788	588.356352622578	594.688948113957	45.196388627799	545.724220808480	766.343117731947	97.395058867853	590.434646549956	675.338220503311	36.802248181729	623.407684378139	883.850878848228	40.190821224345	621.198716000896	614.178236884036	130.848654038160	395.410421450854	679.222850534389	101.446674972795	313.851816983909	778.627267751436	136.081862711494	333.021334312363	881.071294817076	47.851687564122	303.794039508291	628.239708602481	1099.320504223133	254.840142501012	632.595772212231	839.205330480028	255.637392393615	864.968715268961	1106.010995561123	806.809033427071	1112.397709053241	1081.625961823105	749.168339985106	
107	53.360714285714	766.792062578332	967.702820060852	370.072254455162	564.056959669495	1015.164955382510	539.638429915139	728.827190250651	1443.584651851546	358.284780652842	845.010858471961	1367.394908230651	507.309005659843	779.459599205500	1437.520171521577	690.987459209549	742.403456197323	1501.333575537867	511.431765442404	795.141446545782	944.886095071188	642.956556550094	814.170665332966	738.073848853226	612.860656731545	721.347706849089	636.252676583232	670.579934875963	791.914063668231	577.951920450121	590.751067916432	783.655865008386	492.977845556717	594.308798078803	851.068224142163	791.274373344026	393.550665625927	808.596118166447	665.262264808835	312.501360839173	915.024393670868	605.726420116722	368.681243890722	935.890790715999	522.736448730070	359.443692038027	888.925746142073	447.969609159024	351.583939500430	767.724331629937	365.198527441060	303.575849090154	799.295451375670	237.602690766790	355.689680685999	754.895315437288	406.034986493086	597.712346571815	680.071465870805	302.031227035365	652.248112105669	724.411129367363	208.578091039800	588.405064032119	587.965096245641	45.085257811241	545.776473463488	759.594583965334	97.310156711706	590.417206425322	668.627036286539	36.753771275961	623.492191369557	877.124978863914	40.222660304390	621.244935460555	641.306237241779	114.574978291046	395.005228169809	707.941894415411	90.559525378426	312.893407735810	804.729567601111	132.003617288003	331.822154267841	913.102158083064	51.717390179861	301.514806834238	620.460316193838	1101.536140258107	257.484921475721	621.863637401578	841.175294412095	260.577961999565	875.098036471338	1108.536130573174	806.308646597186	1122.320767974255	1097.874303439971	745.271615102796	
108	53.373928571429	764.670141108245	967.536486876630	369.877411207054	563.404601019682	1015.232863391375	541.133327792576	727.431564675434	1443.656104355455	359.491831659359	844.822505793401	1366.720302965953	507.193996249492	781.253066322981	1436.776298994984	691.519299283703	742.509635566673	1500.950549392105	512.587189052805	794.736791575429	944.168391960678	642.605540299492	811.394458746147	737.151562269421	612.138877422326	718.183968119552	635.968581099063	670.802263096012	787.616871463859	577.124192631110	590.594781621260	778.596812301446	492.335634576411	594.296772453792	848.627450153087	791.442139592936	393.217041149862	806.644006799565	665.176263997940	312.318401947208	912.704365627229	606.041538833966	369.337143168667	935.104440025386	525.186961952408	359.817233140109	892.478901131488	449.850499710966	351.529366338336	777.442193202931	359.195785333001	303.195754834030	817.955334569230	233.719460835818	355.011234781738	749.390633433197	405.522987376233	597.715572051246	674.287528380015	301.855837738213	652.443106658353	718.132895219216	208.256649480618	588.406595867685	581.235590403688	44.919165744118	545.823773003428	752.807013024382	97.202647634251	590.354282595694	661.902828179475	36.691666701615	623.574586450328	870.391431384547	40.264003832202	621.276329550627	669.209474618970	99.391343345244	394.327362285161	737.337150992660	80.705639778580	311.939346009889	830.979899404459	128.830243961588	330.830315056863	944.839622859795	56.763156033055	299.988928680642	613.214573335465	1103.529193811766	259.994616620144	611.922652923244	842.966861219602	265.157909378038	884.815752151305	1111.031571698484	805.589675315661	1131.047562652417	1113.577289781889	741.193772631659	
109	53.387142857143	762.608572588860	967.121945270521	369.530057488327	562.849246663314	1015.080451741591	542.514848974980	726.042829010071	1443.545838990042	360.524573728540	844.600324007652	1365.904564426036	506.934241828253	782.923221176392	1435.849431109741	691.869668781839	742.579498813875	1500.402567482656	513.569149596831	794.418555246079	943.353566953278	642.118700840855	808.892911435904	736.165193176115	611.506239272415	715.249594865580	635.582111264413	670.979324865172	783.630105135979	576.226275079887	590.452997052257	773.829024140032	491.578602618184	594.257843792989	845.871194401851	790.976388559664	392.824308349359	804.204407997264	664.584009000848	312.016033484621	909.686761320548	605.621673106367	370.105350014913	933.540259790271	527.069535910288	360.353009393664	895.300527207039	451.514147643801	351.597496266633	787.092991006225	353.330114539432	302.681010215211	836.272775343832	230.617641152782	354.419611732665	744.136914343746	404.897421922800	597.689681867297	668.680939176367	301.606879335113	652.609805662225	711.929842348395	207.841114464535	588.363581038568	574.501630814106	44.710368872235	545.870078074250	745.986964071677	97.080563696080	590.258487437212	655.167330864467	36.619802366553	623.655821378247	863.651732853955	40.315205275664	621.295963932190	697.389110546312	85.776280238923	393.428001442294	766.915928910887	72.238428347709	311.055752841860	856.942848477576	126.776785263036	330.098575465532	975.746304415698	63.034678182054	299.313527529347	606.532328500532	1105.265706978347	262.351108399437	602.781329626785	844.541341023188	269.342176244732	894.077497065325	1113.477139649010	804.646307500835	1138.615170013367	1128.638207418431	736.953997628936	
